HIERARCHY
ROOT Spine
{
    OFFSET 0.0 0.0 -0.0
    CHANNELS 6 Xposition Yposition Zposition Zrotation Xrotation Yrotation
    JOINT ShoulderCenter
    {
        OFFSET 0.0 0.23098309338092804 0.0
        CHANNELS 3 Zrotation Xrotation Yrotation
        JOINT LeftShoulder
        {
            OFFSET 0.16840095818042755 0.0 0.0
            CHANNELS 3 Zrotation Xrotation Yrotation
            JOINT LeftElbow
            {
                OFFSET 0.24740535020828247 0.0 0.0
                CHANNELS 3 Zrotation Xrotation Yrotation
                JOINT LeftHand
                {
                    OFFSET 0.28408199548721313 0.0 0.0
                    CHANNELS 3 Zrotation Xrotation Yrotation
                    End Site
                    {
                        OFFSET 0.11363278329372406 0.0 0.0
                    }
                }
            }
        }
        JOINT RightShoulder
        {
            OFFSET -0.16840095818042755 0.0 0.0
            CHANNELS 3 Zrotation Xrotation Yrotation
            JOINT RightElbow
            {
                OFFSET -0.24740535020828247 0.0 0.0
                CHANNELS 3 Zrotation Xrotation Yrotation
                JOINT RightHand
                {
                    OFFSET -0.28408199548721313 0.0 0.0
                    CHANNELS 3 Zrotation Xrotation Yrotation
                    End Site
                    {
                        OFFSET -0.11363278329372406 0.0 0.0
                    }
                }
            }
        }
        End Site
        {
            OFFSET 0.0 0.09239322692155838 0.0
        }
    }
    JOINT LeftHip
    {
        OFFSET 0.22030216722232224 -0.22030216722232224 0.0
        CHANNELS 3 Zrotation Xrotation Yrotation
        JOINT LeftKnee
        {
            OFFSET 0.0 -0.3443922698497772 0.0
            CHANNELS 3 Zrotation Xrotation Yrotation
            JOINT LeftFoot
            {
                OFFSET 0.0 -0.3858225345611572 0.0
                CHANNELS 3 Zrotation Xrotation Yrotation
                End Site
                {
                    OFFSET 0.0 0.0 0.15432904660701752
                }
            }
        }
    }
    JOINT RightHip
    {
        OFFSET -0.22030216722232224 -0.22030216722232224 0.0
        CHANNELS 3 Zrotation Xrotation Yrotation
        JOINT RightKnee
        {
            OFFSET 0.0 -0.3443922698497772 0.0
            CHANNELS 3 Zrotation Xrotation Yrotation
            JOINT RightFoot
            {
                OFFSET 0.0 -0.3858225345611572 0.0
                CHANNELS 3 Zrotation Xrotation Yrotation
                End Site
                {
                    OFFSET 0.0 0.0 0.15432904660701752
                }
            }
        }
    }
}
MOTION
Frames: 5
Frame Time: 0.03333333333333333
-0.4710859954357147 0.09140858054161072 2.985090970993042 -1.6242763996679956 -13.0534703503056 -158.5904070402681 8.881242186851888e-08 9.728349764036377e-07 2.8411862987737746 106.33691865872363 -24.1327529666134 -139.1854586146588 1.9091738851744916e-06 -4.387178182203081e-07 121.74039314683556 -7.951386703658792e-16 2.2069531490250793e-32 -3.1805546814635168e-15 -122.21296511048968 -31.24877856402016 128.5914444478717 7.540305685598744e-07 -6.342822131699376e-07 -113.19023764451931 1.5902773407317584e-15 -4.4139062980501586e-32 -3.1805546814635168e-15 5.308911140138537 -1.0288002522689208 -53.571782570779796 -5.87882340528895 -7.9977942227246634 28.75480897985406 -5.963540027744094e-16 -2.586273221513765e-34 4.969616689786745e-17 -13.960037010625811 2.3251391186223107 64.40210366962631 23.879872303249353 -14.27419399765089 -19.325575310793862 0.0 0.0 6.3611093629270335e-15
-0.4721629023551941 0.09167461842298508 2.9822869300842285 -1.2362317731688097 -13.73043813314049 -159.088322467621 5.280560259413047e-07 1.1184755688228655e-06 3.565513563131377 109.99727159697343 -26.381855473583563 -136.87195800715918 1.4886986197201216e-06 -7.225949788482523e-08 124.4921089680032 -1.590277340731758e-15 3.1805546814635164e-15 -3.1805546814635164e-15 -121.13961458480819 -27.523286283867645 117.00974080933992 6.7232718372471234e-06 -1.2869793262542559e-06 -109.04115229348452 -3.1805546814635164e-15 7.951386703658792e-15 -3.1805546814635164e-15 5.4315155142462235 -1.604524276896244 -52.68396628406033 -5.823545541608421 -7.986568569501819 29.19738631947997 -3.7272125173400595e-16 1.5902773407317588e-15 1.490885006936024e-16 -13.811822860040305 1.4141622963512406 62.95384206779144 24.091933662529733 -13.450633732719355 -18.492267624421462 1.5902773407317584e-15 3.1805546814635168e-15 7.951386703658792e-16
-0.4729241132736206 0.09023678302764893 2.9787650108337402 -1.2543090719935222 -14.33854960207908 -159.1419101153646 2.564267410543439e-07 1.04540021171732e-06 3.6210873178961327 108.62680212194424 -21.799224785843357 -133.74361124321982 -4.0791547867115135e-06 -2.440703766291868e-06 128.22034294203186 -1.9878466759146976e-15 -1.5902773407317582e-15 3.1805546814635164e-15 -121.32506552825359 -27.07294028480145 114.87680466994799 2.6451294861930197e-06 -2.6248476212916413e-08 -111.62748324624931 -1.5902773407317588e-15 -1.5902773407317588e-15 3.1805546814635176e-15 5.037357928547647 -2.065267055532198 -48.9216478436951 -6.12525393311279 -7.437127424886783 27.221805334616924 1.8636062586700292e-16 -8.082103817230515e-35 -4.9696166897867443e-17 -13.924736704469243 0.8628616700366315 60.88572529281526 24.58611507690983 -12.475600391265452 -17.192770847647232 0.0 0.0 1.5902773407317582e-15
-0.473863810300827 0.08828777819871902 2.978334903717041 -0.9847940702611174 -14.138871135017558 -158.76935623231202 3.0370119485540975e-10 -3.385385650856841e-07 -7.299629750711377 105.12565014561488 10.725771663867052 -122.6743387028235 -5.639349375182658e-06 -4.155775780037062e-06 150.78562698254916 2.981770013872047e-16 -2.069018577211012e-33 -7.951386703658792e-16 -128.38993606210394 -35.42269571473415 101.61779824394934 2.4015919018522826e-06 -2.078424923660042e-06 -119.99320791933762 0.0 0.0 3.180554681463516e-15 5.325602477890452 -1.7007215926484491 -50.361461914873715 -5.739189045110982 -7.854347687292691 28.99044527259629 -4.721135855297407e-16 2.0474663003650637e-34 -4.969616689786745e-17 -12.298432210715943 1.5856622322199585 52.19237485539618 24.510237961440648 -8.244095096358851 -10.90330211522496 0.0 0.0 -3.1805546814635168e-15
-0.47535601258277893 0.08631301671266556 2.9777770042419434 -0.5505788905574469 -14.263135823544236 -158.87200272394017 -1.3099601602777712e-08 -7.4493698694365e-07 -6.503745656283608 102.86710298548225 11.818082210534461 -121.05510238115437 -3.381966817698473e-06 2.424173893541793e-06 151.7439712302999 2.584200678689107e-15 -5.379448300748631e-32 -2.385416011097637e-15 -122.29186316706819 -31.860323519337967 102.46663331940884 -4.877051043881315e-06 -5.040613358483716e-06 -124.96311725421792 4.770832022195275e-15 -3.1805546814635168e-15 -6.3611093629270335e-15 5.5370634520855875 -1.877251529245185 -48.56534049658786 -5.8453407857731845 -7.630839783035966 28.229362998394357 4.2241741863187335e-16 -1.5902773407317584e-15 2.484808344893373e-17 -11.68833860655408 1.3873022030164044 49.19173401990176 24.81763699861683 -6.797747857645411 -8.863105694866988 0.0 0.0 -7.951386703658792e-16
